<svg width="25" height="25" viewBox="0 0 25 25" fill="none" xmlns="http://www.w3.org/2000/svg">
<circle cx="12.2637" cy="12.0176" r="12" fill="url(#paint0_linear)"/>
<g clip-path="url(#clip0)">
<path d="M18.8365 8.75351C18.8017 7.96724 18.6693 7.53804 18.5589 7.25402C18.4293 6.90327 18.2244 6.58762 17.9559 6.32543C17.6972 6.05722 17.3782 5.85196 17.0278 5.7226C16.7439 5.61222 16.3176 5.47969 15.5287 5.4449C14.6794 5.40695 14.4239 5.39746 12.2648 5.39746C10.109 5.39746 9.85316 5.40695 9.00099 5.4449C8.21522 5.47969 7.78581 5.61222 7.50154 5.7226C7.15119 5.85196 6.83562 6.05722 6.5738 6.32543C6.30218 6.58446 6.09696 6.90327 5.96764 7.25402C5.85696 7.53804 5.72448 7.96439 5.69001 8.75351C5.65175 9.60272 5.64258 9.86175 5.64258 12.0182C5.64258 14.1745 5.65175 14.4304 5.69001 15.2828C5.72448 16.0687 5.85696 16.4983 5.96764 16.7826C6.09696 17.1327 6.30218 17.4487 6.57064 17.7106C6.82929 17.9791 7.14803 18.1843 7.49838 18.3137C7.78265 18.4241 8.20858 18.5569 8.99782 18.5914C9.84683 18.6294 10.1058 18.6388 12.2617 18.6388C14.4176 18.6388 14.6731 18.6294 15.5255 18.5914C16.3113 18.5569 16.7407 18.4241 17.0247 18.3137C17.7285 18.042 18.2873 17.4835 18.5589 16.7791C18.6693 16.4951 18.8017 16.0687 18.8365 15.2796C18.8745 14.4273 18.884 14.1745 18.884 12.0182C18.884 9.86175 18.8745 9.60588 18.8365 8.75351ZM12.2585 16.1636C9.96699 16.1636 8.10771 14.3039 8.10771 12.0118C8.10771 9.71974 9.96699 7.86002 12.2585 7.86002C14.5501 7.86002 16.4093 9.71974 16.4093 12.0118C16.4093 14.3039 14.5501 16.1636 12.2585 16.1636ZM16.5735 8.66527C16.0381 8.66527 15.6043 8.23101 15.6043 7.69587C15.6043 7.16041 16.0381 6.72679 16.5735 6.72679C17.1085 6.72679 17.5426 7.16041 17.5426 7.69587C17.5426 8.23101 17.1085 8.66527 16.5735 8.66527Z" fill="white"/>
<path d="M14.1627 13.916C15.2142 12.8643 15.2142 11.1591 14.1627 10.1074C13.1113 9.05569 11.4065 9.05569 10.355 10.1074C9.30356 11.1591 9.30356 12.8643 10.355 13.916C11.4065 14.9677 13.1113 14.9677 14.1627 13.916Z" fill="white"/>
</g>
<defs>
<linearGradient id="paint0_linear" x1="24.2637" y1="0.0175781" x2="0.263672" y2="24.0176" gradientUnits="userSpaceOnUse">
<stop offset="0.133499" stop-color="#6A45ED"/>
<stop offset="0.505208" stop-color="#ED155B"/>
<stop offset="0.846226" stop-color="#FFDE83"/>
</linearGradient>
<clipPath id="clip0">
<rect width="13.2414" height="13.2414" fill="white" transform="translate(5.64258 5.39746)"/>
</clipPath>
</defs>
</svg>
