<svg width="25" height="25" viewBox="0 0 25 25" fill="none" xmlns="http://www.w3.org/2000/svg">
<circle cx="12.2637" cy="12.0176" r="12" fill="#2787F5"/>
<g clip-path="url(#clip0)">
<path fill-rule="evenodd" clip-rule="evenodd" d="M18.2334 13.2908C18.7824 13.8268 19.3619 14.3312 19.8544 14.9213C20.0719 15.1835 20.2778 15.4541 20.4354 15.7584C20.6586 16.191 20.4564 16.6671 20.0685 16.6929L17.6572 16.6918C17.0353 16.7435 16.5392 16.4931 16.122 16.0679C15.7882 15.7278 15.479 15.3659 15.158 15.0144C15.0264 14.8707 14.8886 14.7355 14.7241 14.6286C14.3949 14.415 14.1092 14.4804 13.9211 14.8237C13.7295 15.1729 13.686 15.5596 13.6672 15.9487C13.6414 16.5165 13.4697 16.6658 12.8994 16.6918C11.6805 16.7493 10.5237 16.5649 9.44901 15.95C8.50156 15.4079 7.76686 14.6426 7.12738 13.7763C5.88231 12.0893 4.92883 10.2355 4.07187 8.32988C3.87898 7.90054 4.02005 7.67006 4.49377 7.66191C5.28041 7.64663 6.06693 7.64771 6.85449 7.66082C7.17421 7.6655 7.38586 7.84887 7.50931 8.15091C7.9349 9.19739 8.45567 10.193 9.10934 11.1159C9.28341 11.3616 9.46092 11.6073 9.71369 11.7802C9.99332 11.9717 10.2062 11.9082 10.3378 11.5967C10.4213 11.3992 10.4578 11.1865 10.4766 10.9749C10.5389 10.2471 10.5471 9.52058 10.4378 8.79534C10.3707 8.34272 10.1158 8.04971 9.66414 7.96405C9.43367 7.92038 9.46799 7.83462 9.57958 7.70307C9.7734 7.47619 9.95569 7.33496 10.3191 7.33496H13.0442C13.4732 7.41963 13.5685 7.61236 13.6272 8.04405L13.6296 11.0711C13.6249 11.2382 13.7131 11.7341 14.0141 11.8448C14.255 11.9235 14.4138 11.7308 14.5583 11.578C15.2108 10.8855 15.6765 10.0671 16.0925 9.21968C16.2771 8.84706 16.4359 8.46007 16.5897 8.07342C16.7037 7.7865 16.8825 7.64532 17.2057 7.65157L19.8285 7.65391C19.9063 7.65391 19.985 7.65505 20.0603 7.66794C20.5023 7.74326 20.6234 7.93338 20.4869 8.36496C20.2718 9.04207 19.8533 9.60634 19.4442 10.1732C19.0068 10.7784 18.539 11.3629 18.1052 11.9717C17.7067 12.5277 17.7384 12.8079 18.2334 13.2908Z" fill="white"/>
</g>
<defs>
<clipPath id="clip0">
<rect width="16.5517" height="16.5517" fill="white" transform="translate(3.98828 3.74219)"/>
</clipPath>
</defs>
</svg>
